solid OpenSCAD_Model
  facet normal 0.978148 0.207912 0
    outer loop
      vertex 15 -10 10
      vertex 14.5677 -7.96632 0
      vertex 14.5677 -7.96632 10
    endloop
  endfacet
  facet normal 0.978148 0.207912 0
    outer loop
      vertex 14.5677 -7.96632 0
      vertex 15 -10 10
      vertex 15 -10 0
    endloop
  endfacet
  facet normal -1 0 0
    outer loop
      vertex 5.10926 -11.0396 0
      vertex 5.10926 -8.96044 10
      vertex 5.10926 -8.96044 0
    endloop
  endfacet
  facet normal -1 -0 0
    outer loop
      vertex 5.10926 -8.96044 10
      vertex 5.10926 -11.0396 0
      vertex 5.10926 -11.0396 10
    endloop
  endfacet
  facet normal -0.309017 0.951057 0
    outer loop
      vertex 9.47736 -5.02739 0
      vertex 7.5 -5.66987 10
      vertex 9.47736 -5.02739 10
    endloop
  endfacet
  facet normal -0.309017 0.951057 0
    outer loop
      vertex 7.5 -5.66987 10
      vertex 9.47736 -5.02739 0
      vertex 7.5 -5.66987 0
    endloop
  endfacet
  facet normal -0.66913 0.743145 0
    outer loop
      vertex 7.5 -5.66987 0
      vertex 5.95492 -7.06107 10
      vertex 7.5 -5.66987 10
    endloop
  endfacet
  facet normal -0.66913 0.743145 0
    outer loop
      vertex 5.95492 -7.06107 10
      vertex 7.5 -5.66987 0
      vertex 5.95492 -7.06107 0
    endloop
  endfacet
  facet normal 0.104528 -0.994522 0
    outer loop
      vertex 9.47736 -14.9726 0
      vertex 11.5451 -14.7553 10
      vertex 9.47736 -14.9726 10
    endloop
  endfacet
  facet normal 0.104528 -0.994522 0
    outer loop
      vertex 11.5451 -14.7553 10
      vertex 9.47736 -14.9726 0
      vertex 11.5451 -14.7553 0
    endloop
  endfacet
  facet normal 0.5 -0.866025 0
    outer loop
      vertex 11.5451 -14.7553 0
      vertex 13.3457 -13.7157 10
      vertex 11.5451 -14.7553 10
    endloop
  endfacet
  facet normal 0.5 -0.866025 0
    outer loop
      vertex 13.3457 -13.7157 10
      vertex 11.5451 -14.7553 0
      vertex 13.3457 -13.7157 0
    endloop
  endfacet
  facet normal 0 0 -1
    outer loop
      vertex 13 -10 0
      vertex 15 -10 0
      vertex 14.5677 -12.0337 0
    endloop
  endfacet
  facet normal 0 0 -1
    outer loop
      vertex 12.7406 -11.2202 0
      vertex 14.5677 -12.0337 0
      vertex 13.3457 -13.7157 0
    endloop
  endfacet
  facet normal 0 0 -1
    outer loop
      vertex 15 -10 0
      vertex 13 -10 0
      vertex 14.5677 -7.96632 0
    endloop
  endfacet
  facet normal 0 0 -1
    outer loop
      vertex 12.7406 -8.77979 0
      vertex 14.5677 -7.96632 0
      vertex 13 -10 0
    endloop
  endfacet
  facet normal 0 0 -1
    outer loop
      vertex 14.5677 -12.0337 0
      vertex 12.7406 -11.2202 0
      vertex 13 -10 0
    endloop
  endfacet
  facet normal 0 0 -1
    outer loop
      vertex 13.3457 -13.7157 0
      vertex 12.0074 -12.2294 0
      vertex 12.7406 -11.2202 0
    endloop
  endfacet
  facet normal 0 0 -1
    outer loop
      vertex 11.5451 -14.7553 0
      vertex 12.0074 -12.2294 0
      vertex 13.3457 -13.7157 0
    endloop
  endfacet
  facet normal 0 0 -1
    outer loop
      vertex 11.5451 -14.7553 0
      vertex 10.9271 -12.8532 0
      vertex 12.0074 -12.2294 0
    endloop
  endfacet
  facet normal 0 0 -1
    outer loop
      vertex 11.5451 -14.7553 0
      vertex 9.68641 -12.9836 0
      vertex 10.9271 -12.8532 0
    endloop
  endfacet
  facet normal 0 0 -1
    outer loop
      vertex 9.47736 -14.9726 0
      vertex 9.68641 -12.9836 0
      vertex 11.5451 -14.7553 0
    endloop
  endfacet
  facet normal 0 0 -1
    outer loop
      vertex 9.47736 -14.9726 0
      vertex 8.5 -12.5981 0
      vertex 9.68641 -12.9836 0
    endloop
  endfacet
  facet normal 0 0 -1
    outer loop
      vertex 7.5 -14.3301 0
      vertex 8.5 -12.5981 0
      vertex 9.47736 -14.9726 0
    endloop
  endfacet
  facet normal -0 0 -1
    outer loop
      vertex 8.5 -12.5981 0
      vertex 7.5 -14.3301 0
      vertex 7.57295 -11.7634 0
    endloop
  endfacet
  facet normal 0 0 -1
    outer loop
      vertex 5.95492 -12.9389 0
      vertex 7.57295 -11.7634 0
      vertex 7.5 -14.3301 0
    endloop
  endfacet
  facet normal 0 0 -1
    outer loop
      vertex 5.10926 -11.0396 0
      vertex 7.06556 -10.6237 0
      vertex 5.95492 -12.9389 0
    endloop
  endfacet
  facet normal -0 0 -1
    outer loop
      vertex 7.57295 -11.7634 0
      vertex 5.95492 -12.9389 0
      vertex 7.06556 -10.6237 0
    endloop
  endfacet
  facet normal -0 0 -1
    outer loop
      vertex 14.5677 -7.96632 0
      vertex 12.7406 -8.77979 0
      vertex 13.3457 -6.28428 0
    endloop
  endfacet
  facet normal 0 0 -1
    outer loop
      vertex 12.0074 -7.77057 0
      vertex 13.3457 -6.28428 0
      vertex 12.7406 -8.77979 0
    endloop
  endfacet
  facet normal 0 0 -1
    outer loop
      vertex 12.0074 -7.77057 0
      vertex 11.5451 -5.24472 0
      vertex 13.3457 -6.28428 0
    endloop
  endfacet
  facet normal 0 0 -1
    outer loop
      vertex 10.9271 -7.14683 0
      vertex 11.5451 -5.24472 0
      vertex 12.0074 -7.77057 0
    endloop
  endfacet
  facet normal 0 0 -1
    outer loop
      vertex 9.68641 -7.01643 0
      vertex 11.5451 -5.24472 0
      vertex 10.9271 -7.14683 0
    endloop
  endfacet
  facet normal 0 0 -1
    outer loop
      vertex 9.68641 -7.01643 0
      vertex 9.47736 -5.02739 0
      vertex 11.5451 -5.24472 0
    endloop
  endfacet
  facet normal 0 0 -1
    outer loop
      vertex 8.5 -7.40192 0
      vertex 9.47736 -5.02739 0
      vertex 9.68641 -7.01643 0
    endloop
  endfacet
  facet normal 0 0 -1
    outer loop
      vertex 7.5 -5.66987 0
      vertex 8.5 -7.40192 0
      vertex 7.57295 -8.23664 0
    endloop
  endfacet
  facet normal 0 0 -1
    outer loop
      vertex 8.5 -7.40192 0
      vertex 7.5 -5.66987 0
      vertex 9.47736 -5.02739 0
    endloop
  endfacet
  facet normal 0 0 -1
    outer loop
      vertex 5.95492 -7.06107 0
      vertex 7.57295 -8.23664 0
      vertex 7.06556 -9.37627 0
    endloop
  endfacet
  facet normal -0 0 -1
    outer loop
      vertex 7.06556 -10.6237 0
      vertex 5.10926 -11.0396 0
      vertex 7.06556 -9.37627 0
    endloop
  endfacet
  facet normal 0 0 -1
    outer loop
      vertex 7.57295 -8.23664 0
      vertex 5.95492 -7.06107 0
      vertex 7.5 -5.66987 0
    endloop
  endfacet
  facet normal 0 0 -1
    outer loop
      vertex 5.10926 -8.96044 0
      vertex 7.06556 -9.37627 0
      vertex 5.10926 -11.0396 0
    endloop
  endfacet
  facet normal 0 0 -1
    outer loop
      vertex 7.06556 -9.37627 0
      vertex 5.10926 -8.96044 0
      vertex 5.95492 -7.06107 0
    endloop
  endfacet
  facet normal 0.5 0.866025 -0
    outer loop
      vertex 13.3457 -6.28428 0
      vertex 11.5451 -5.24472 10
      vertex 13.3457 -6.28428 10
    endloop
  endfacet
  facet normal 0.5 0.866025 0
    outer loop
      vertex 11.5451 -5.24472 10
      vertex 13.3457 -6.28428 0
      vertex 11.5451 -5.24472 0
    endloop
  endfacet
  facet normal 0.809017 0.587785 0
    outer loop
      vertex 14.5677 -7.96632 10
      vertex 13.3457 -6.28428 0
      vertex 13.3457 -6.28428 10
    endloop
  endfacet
  facet normal 0.809017 0.587785 0
    outer loop
      vertex 13.3457 -6.28428 0
      vertex 14.5677 -7.96632 10
      vertex 14.5677 -7.96632 0
    endloop
  endfacet
  facet normal 0.104528 0.994522 -0
    outer loop
      vertex 11.5451 -5.24472 0
      vertex 9.47736 -5.02739 10
      vertex 11.5451 -5.24472 10
    endloop
  endfacet
  facet normal 0.104528 0.994522 0
    outer loop
      vertex 9.47736 -5.02739 10
      vertex 11.5451 -5.24472 0
      vertex 9.47736 -5.02739 0
    endloop
  endfacet
  facet normal -0.913546 0.406737 0
    outer loop
      vertex 5.10926 -8.96044 0
      vertex 5.95492 -7.06107 10
      vertex 5.95492 -7.06107 0
    endloop
  endfacet
  facet normal -0.913546 0.406737 0
    outer loop
      vertex 5.95492 -7.06107 10
      vertex 5.10926 -8.96044 0
      vertex 5.10926 -8.96044 10
    endloop
  endfacet
  facet normal 0 0 1
    outer loop
      vertex 13 -10 10
      vertex 15 -10 10
      vertex 14.5677 -7.96632 10
    endloop
  endfacet
  facet normal 0 0 1
    outer loop
      vertex 12.7406 -8.77979 10
      vertex 14.5677 -7.96632 10
      vertex 13.3457 -6.28428 10
    endloop
  endfacet
  facet normal 0 0 1
    outer loop
      vertex 15 -10 10
      vertex 13 -10 10
      vertex 14.5677 -12.0337 10
    endloop
  endfacet
  facet normal -0 0 1
    outer loop
      vertex 12.7406 -11.2202 10
      vertex 14.5677 -12.0337 10
      vertex 13 -10 10
    endloop
  endfacet
  facet normal 0 0 1
    outer loop
      vertex 14.5677 -7.96632 10
      vertex 12.7406 -8.77979 10
      vertex 13 -10 10
    endloop
  endfacet
  facet normal 0 0 1
    outer loop
      vertex 13.3457 -6.28428 10
      vertex 12.0074 -7.77057 10
      vertex 12.7406 -8.77979 10
    endloop
  endfacet
  facet normal 0 0 1
    outer loop
      vertex 11.5451 -5.24472 10
      vertex 12.0074 -7.77057 10
      vertex 13.3457 -6.28428 10
    endloop
  endfacet
  facet normal 0 0 1
    outer loop
      vertex 11.5451 -5.24472 10
      vertex 10.9271 -7.14683 10
      vertex 12.0074 -7.77057 10
    endloop
  endfacet
  facet normal 0 0 1
    outer loop
      vertex 11.5451 -5.24472 10
      vertex 9.68641 -7.01643 10
      vertex 10.9271 -7.14683 10
    endloop
  endfacet
  facet normal 0 0 1
    outer loop
      vertex 9.47736 -5.02739 10
      vertex 9.68641 -7.01643 10
      vertex 11.5451 -5.24472 10
    endloop
  endfacet
  facet normal 0 0 1
    outer loop
      vertex 9.47736 -5.02739 10
      vertex 8.5 -7.40192 10
      vertex 9.68641 -7.01643 10
    endloop
  endfacet
  facet normal -0 0 1
    outer loop
      vertex 7.5 -5.66987 10
      vertex 8.5 -7.40192 10
      vertex 9.47736 -5.02739 10
    endloop
  endfacet
  facet normal 0 0 1
    outer loop
      vertex 8.5 -7.40192 10
      vertex 7.5 -5.66987 10
      vertex 7.57295 -8.23664 10
    endloop
  endfacet
  facet normal -0 0 1
    outer loop
      vertex 5.95492 -7.06107 10
      vertex 7.57295 -8.23664 10
      vertex 7.5 -5.66987 10
    endloop
  endfacet
  facet normal -0 0 1
    outer loop
      vertex 5.10926 -8.96044 10
      vertex 7.06556 -9.37627 10
      vertex 5.95492 -7.06107 10
    endloop
  endfacet
  facet normal 0 0 1
    outer loop
      vertex 7.57295 -8.23664 10
      vertex 5.95492 -7.06107 10
      vertex 7.06556 -9.37627 10
    endloop
  endfacet
  facet normal 0 0 1
    outer loop
      vertex 14.5677 -12.0337 10
      vertex 12.7406 -11.2202 10
      vertex 13.3457 -13.7157 10
    endloop
  endfacet
  facet normal -0 0 1
    outer loop
      vertex 12.0074 -12.2294 10
      vertex 13.3457 -13.7157 10
      vertex 12.7406 -11.2202 10
    endloop
  endfacet
  facet normal 0 0 1
    outer loop
      vertex 12.0074 -12.2294 10
      vertex 11.5451 -14.7553 10
      vertex 13.3457 -13.7157 10
    endloop
  endfacet
  facet normal -0 0 1
    outer loop
      vertex 10.9271 -12.8532 10
      vertex 11.5451 -14.7553 10
      vertex 12.0074 -12.2294 10
    endloop
  endfacet
  facet normal -0 0 1
    outer loop
      vertex 9.68641 -12.9836 10
      vertex 11.5451 -14.7553 10
      vertex 10.9271 -12.8532 10
    endloop
  endfacet
  facet normal 0 0 1
    outer loop
      vertex 9.68641 -12.9836 10
      vertex 9.47736 -14.9726 10
      vertex 11.5451 -14.7553 10
    endloop
  endfacet
  facet normal 0 0 1
    outer loop
      vertex 8.5 -12.5981 10
      vertex 9.47736 -14.9726 10
      vertex 9.68641 -12.9836 10
    endloop
  endfacet
  facet normal 0 0 1
    outer loop
      vertex 7.5 -14.3301 10
      vertex 8.5 -12.5981 10
      vertex 7.57295 -11.7634 10
    endloop
  endfacet
  facet normal 0 0 1
    outer loop
      vertex 8.5 -12.5981 10
      vertex 7.5 -14.3301 10
      vertex 9.47736 -14.9726 10
    endloop
  endfacet
  facet normal 0 0 1
    outer loop
      vertex 5.95492 -12.9389 10
      vertex 7.57295 -11.7634 10
      vertex 7.06556 -10.6237 10
    endloop
  endfacet
  facet normal 0 0 1
    outer loop
      vertex 7.06556 -9.37627 10
      vertex 5.10926 -8.96044 10
      vertex 7.06556 -10.6237 10
    endloop
  endfacet
  facet normal 0 0 1
    outer loop
      vertex 7.57295 -11.7634 10
      vertex 5.95492 -12.9389 10
      vertex 7.5 -14.3301 10
    endloop
  endfacet
  facet normal 0 0 1
    outer loop
      vertex 5.10926 -11.0396 10
      vertex 7.06556 -10.6237 10
      vertex 5.10926 -8.96044 10
    endloop
  endfacet
  facet normal 0 0 1
    outer loop
      vertex 7.06556 -10.6237 10
      vertex 5.10926 -11.0396 10
      vertex 5.95492 -12.9389 10
    endloop
  endfacet
  facet normal 0.978148 -0.207912 0
    outer loop
      vertex 14.5677 -12.0337 10
      vertex 15 -10 0
      vertex 15 -10 10
    endloop
  endfacet
  facet normal 0.978148 -0.207912 0
    outer loop
      vertex 15 -10 0
      vertex 14.5677 -12.0337 10
      vertex 14.5677 -12.0337 0
    endloop
  endfacet
  facet normal -0.309017 -0.951057 0
    outer loop
      vertex 7.5 -14.3301 0
      vertex 9.47736 -14.9726 10
      vertex 7.5 -14.3301 10
    endloop
  endfacet
  facet normal -0.309017 -0.951057 -0
    outer loop
      vertex 9.47736 -14.9726 10
      vertex 7.5 -14.3301 0
      vertex 9.47736 -14.9726 0
    endloop
  endfacet
  facet normal -0.913546 -0.406737 0
    outer loop
      vertex 5.95492 -12.9389 0
      vertex 5.10926 -11.0396 10
      vertex 5.10926 -11.0396 0
    endloop
  endfacet
  facet normal -0.913546 -0.406737 0
    outer loop
      vertex 5.10926 -11.0396 10
      vertex 5.95492 -12.9389 0
      vertex 5.95492 -12.9389 10
    endloop
  endfacet
  facet normal 0.809017 -0.587785 0
    outer loop
      vertex 13.3457 -13.7157 10
      vertex 14.5677 -12.0337 0
      vertex 14.5677 -12.0337 10
    endloop
  endfacet
  facet normal 0.809017 -0.587785 0
    outer loop
      vertex 14.5677 -12.0337 0
      vertex 13.3457 -13.7157 10
      vertex 13.3457 -13.7157 0
    endloop
  endfacet
  facet normal -0.669131 -0.743145 0
    outer loop
      vertex 5.95492 -12.9389 0
      vertex 7.5 -14.3301 10
      vertex 5.95492 -12.9389 10
    endloop
  endfacet
  facet normal -0.669131 -0.743145 -0
    outer loop
      vertex 7.5 -14.3301 10
      vertex 5.95492 -12.9389 0
      vertex 7.5 -14.3301 0
    endloop
  endfacet
  facet normal -0.978147 -0.207912 0
    outer loop
      vertex 13 -10 0
      vertex 12.7406 -8.77979 10
      vertex 12.7406 -8.77979 0
    endloop
  endfacet
  facet normal -0.978147 -0.207912 0
    outer loop
      vertex 12.7406 -8.77979 10
      vertex 13 -10 0
      vertex 13 -10 10
    endloop
  endfacet
  facet normal 1 -0 0
    outer loop
      vertex 7.06556 -10.6237 10
      vertex 7.06556 -9.37627 0
      vertex 7.06556 -9.37627 10
    endloop
  endfacet
  facet normal 1 0 0
    outer loop
      vertex 7.06556 -9.37627 0
      vertex 7.06556 -10.6237 10
      vertex 7.06556 -10.6237 0
    endloop
  endfacet
  facet normal -0.104528 -0.994522 0
    outer loop
      vertex 9.68641 -7.01643 0
      vertex 10.9271 -7.14683 10
      vertex 9.68641 -7.01643 10
    endloop
  endfacet
  facet normal -0.104528 -0.994522 -0
    outer loop
      vertex 10.9271 -7.14683 10
      vertex 9.68641 -7.01643 0
      vertex 10.9271 -7.14683 0
    endloop
  endfacet
  facet normal -0.5 0.866025 0
    outer loop
      vertex 12.0074 -12.2294 0
      vertex 10.9271 -12.8532 10
      vertex 12.0074 -12.2294 10
    endloop
  endfacet
  facet normal -0.5 0.866025 0
    outer loop
      vertex 10.9271 -12.8532 10
      vertex 12.0074 -12.2294 0
      vertex 10.9271 -12.8532 0
    endloop
  endfacet
  facet normal -0.104528 0.994522 0
    outer loop
      vertex 10.9271 -12.8532 0
      vertex 9.68641 -12.9836 10
      vertex 10.9271 -12.8532 10
    endloop
  endfacet
  facet normal -0.104528 0.994522 0
    outer loop
      vertex 9.68641 -12.9836 10
      vertex 10.9271 -12.8532 0
      vertex 9.68641 -12.9836 0
    endloop
  endfacet
  facet normal -0.5 -0.866025 0
    outer loop
      vertex 10.9271 -7.14683 0
      vertex 12.0074 -7.77057 10
      vertex 10.9271 -7.14683 10
    endloop
  endfacet
  facet normal -0.5 -0.866025 -0
    outer loop
      vertex 12.0074 -7.77057 10
      vertex 10.9271 -7.14683 0
      vertex 12.0074 -7.77057 0
    endloop
  endfacet
  facet normal -0.809017 -0.587785 0
    outer loop
      vertex 12.7406 -8.77979 0
      vertex 12.0074 -7.77057 10
      vertex 12.0074 -7.77057 0
    endloop
  endfacet
  facet normal -0.809017 -0.587785 0
    outer loop
      vertex 12.0074 -7.77057 10
      vertex 12.7406 -8.77979 0
      vertex 12.7406 -8.77979 10
    endloop
  endfacet
  facet normal 0.309017 -0.951056 0
    outer loop
      vertex 8.5 -7.40192 0
      vertex 9.68641 -7.01643 10
      vertex 8.5 -7.40192 10
    endloop
  endfacet
  facet normal 0.309017 -0.951056 0
    outer loop
      vertex 9.68641 -7.01643 10
      vertex 8.5 -7.40192 0
      vertex 9.68641 -7.01643 0
    endloop
  endfacet
  facet normal 0.913545 -0.406737 0
    outer loop
      vertex 7.06556 -9.37627 10
      vertex 7.57295 -8.23664 0
      vertex 7.57295 -8.23664 10
    endloop
  endfacet
  facet normal 0.913545 -0.406737 0
    outer loop
      vertex 7.57295 -8.23664 0
      vertex 7.06556 -9.37627 10
      vertex 7.06556 -9.37627 0
    endloop
  endfacet
  facet normal 0.66913 -0.743145 0
    outer loop
      vertex 7.57295 -8.23664 0
      vertex 8.5 -7.40192 10
      vertex 7.57295 -8.23664 10
    endloop
  endfacet
  facet normal 0.66913 -0.743145 0
    outer loop
      vertex 8.5 -7.40192 10
      vertex 7.57295 -8.23664 0
      vertex 8.5 -7.40192 0
    endloop
  endfacet
  facet normal 0.913545 0.406737 0
    outer loop
      vertex 7.57295 -11.7634 10
      vertex 7.06556 -10.6237 0
      vertex 7.06556 -10.6237 10
    endloop
  endfacet
  facet normal 0.913545 0.406737 0
    outer loop
      vertex 7.06556 -10.6237 0
      vertex 7.57295 -11.7634 10
      vertex 7.57295 -11.7634 0
    endloop
  endfacet
  facet normal 0.309017 0.951057 -0
    outer loop
      vertex 9.68641 -12.9836 0
      vertex 8.5 -12.5981 10
      vertex 9.68641 -12.9836 10
    endloop
  endfacet
  facet normal 0.309017 0.951057 0
    outer loop
      vertex 8.5 -12.5981 10
      vertex 9.68641 -12.9836 0
      vertex 8.5 -12.5981 0
    endloop
  endfacet
  facet normal 0.669131 0.743145 -0
    outer loop
      vertex 8.5 -12.5981 0
      vertex 7.57295 -11.7634 10
      vertex 8.5 -12.5981 10
    endloop
  endfacet
  facet normal 0.669131 0.743145 0
    outer loop
      vertex 7.57295 -11.7634 10
      vertex 8.5 -12.5981 0
      vertex 7.57295 -11.7634 0
    endloop
  endfacet
  facet normal -0.809017 0.587785 0
    outer loop
      vertex 12.0074 -12.2294 0
      vertex 12.7406 -11.2202 10
      vertex 12.7406 -11.2202 0
    endloop
  endfacet
  facet normal -0.809017 0.587785 0
    outer loop
      vertex 12.7406 -11.2202 10
      vertex 12.0074 -12.2294 0
      vertex 12.0074 -12.2294 10
    endloop
  endfacet
  facet normal -0.978147 0.207912 0
    outer loop
      vertex 12.7406 -11.2202 0
      vertex 13 -10 10
      vertex 13 -10 0
    endloop
  endfacet
  facet normal -0.978147 0.207912 0
    outer loop
      vertex 13 -10 10
      vertex 12.7406 -11.2202 0
      vertex 12.7406 -11.2202 10
    endloop
  endfacet
  facet normal -1 0 0
    outer loop
      vertex 5 5 0
      vertex 5 15 10
      vertex 5 15 0
    endloop
  endfacet
  facet normal -1 -0 0
    outer loop
      vertex 5 15 10
      vertex 5 5 0
      vertex 5 5 10
    endloop
  endfacet
  facet normal -0 0 1
    outer loop
      vertex 5 15 10
      vertex 15 5 10
      vertex 15 15 10
    endloop
  endfacet
  facet normal 0 0 1
    outer loop
      vertex 15 5 10
      vertex 5 15 10
      vertex 5 5 10
    endloop
  endfacet
  facet normal 1 -0 0
    outer loop
      vertex 15 5 10
      vertex 15 15 0
      vertex 15 15 10
    endloop
  endfacet
  facet normal 1 0 0
    outer loop
      vertex 15 15 0
      vertex 15 5 10
      vertex 15 5 0
    endloop
  endfacet
  facet normal 0 1 -0
    outer loop
      vertex 15 15 0
      vertex 5 15 10
      vertex 15 15 10
    endloop
  endfacet
  facet normal 0 1 0
    outer loop
      vertex 5 15 10
      vertex 15 15 0
      vertex 5 15 0
    endloop
  endfacet
  facet normal 0 0 -1
    outer loop
      vertex 5 5 0
      vertex 15 15 0
      vertex 15 5 0
    endloop
  endfacet
  facet normal -0 0 -1
    outer loop
      vertex 15 15 0
      vertex 5 5 0
      vertex 5 15 0
    endloop
  endfacet
  facet normal 0 -1 0
    outer loop
      vertex 5 5 0
      vertex 15 5 10
      vertex 5 5 10
    endloop
  endfacet
  facet normal 0 -1 -0
    outer loop
      vertex 15 5 10
      vertex 5 5 0
      vertex 15 5 0
    endloop
  endfacet
  facet normal 0.381579 0.075901 0.921214
    outer loop
      vertex -7.4336 11.063 9.15735
      vertex -9.02455 10 9.90393
      vertex -7.22215 10 9.15735
    endloop
  endfacet
  facet normal 0.593613 -0.396639 0.700215
    outer loop
      vertex -7.4336 8.93696 9.15735
      vertex -8.03576 8.03576 9.15735
      vertex -6.15911 8.40905 7.77785
    endloop
  endfacet
  facet normal 0.908663 0.180745 0.376381
    outer loop
      vertex -5.46936 11.8767 5.97545
      vertex -6.15911 11.5909 7.77785
      vertex -5.84265 10 7.77785
    endloop
  endfacet
  facet normal -0.139281 0.700214 0.700214
    outer loop
      vertex -10 14.1573 7.77785
      vertex -11.5909 13.8409 7.77785
      vertex -10 12.7779 9.15735
    endloop
  endfacet
  facet normal -0.323487 0.216148 -0.921215
    outer loop
      vertex -10.9012 10.3733 0.0960732
      vertex -11.9642 11.9642 0.842651
      vertex -10.6897 10.6897 0.0960732
    endloop
  endfacet
  facet normal -0.139281 0.700214 -0.700214
    outer loop
      vertex -10 12.7779 0.842651
      vertex -11.5909 13.8409 2.22215
      vertex -10 14.1573 2.22215
    endloop
  endfacet
  facet normal 0.381579 -0.075901 -0.921215
    outer loop
      vertex -7.4336 8.93696 0.842651
      vertex -9.0988 9.62671 0.0960732
      vertex -9.02455 10 0.0960732
    endloop
  endfacet
  facet normal -0.908663 -0.180744 0.376381
    outer loop
      vertex -14.1573 10 7.77785
      vertex -14.5306 8.12335 5.97545
      vertex -13.8409 8.40905 7.77785
    endloop
  endfacet
  facet normal 0.396639 0.593613 0.700215
    outer loop
      vertex -8.40905 13.8409 7.77785
      vertex -8.93696 12.5664 9.15735
      vertex -8.03576 11.9642 9.15735
    endloop
  endfacet
  facet normal 0.908663 -0.180744 0.376381
    outer loop
      vertex -5.84265 10 7.77785
      vertex -6.15911 8.40905 7.77785
      vertex -5.46936 8.12335 5.97545
    endloop
  endfacet
  facet normal -0.908663 -0.180744 -0.376381
    outer loop
      vertex -14.5306 8.12335 4.02455
      vertex -14.9039 10 4.02455
      vertex -14.1573 10 2.22215
    endloop
  endfacet
  facet normal -0.908663 -0.180744 0.376381
    outer loop
      vertex -14.1573 10 7.77785
      vertex -14.9039 10 5.97545
      vertex -14.5306 8.12335 5.97545
    endloop
  endfacet
  facet normal 0.770328 -0.514717 0.37638
    outer loop
      vertex -5.46936 8.12335 5.97545
      vertex -7.06031 7.06031 7.77785
      vertex -6.5324 6.5324 5.97545
    endloop
  endfacet
  facet normal -0.216148 -0.323487 -0.921215
    outer loop
      vertex -10.3733 9.0988 0.0960732
      vertex -11.9642 8.03576 0.842651
      vertex -10.6897 9.31025 0.0960732
    endloop
  endfacet
  facet normal 0.908663 0.180744 -0.376381
    outer loop
      vertex -5.09607 10 4.02455
      vertex -5.84265 10 2.22215
      vertex -5.46936 11.8767 4.02455
    endloop
  endfacet
  facet normal 0.180744 -0.908663 -0.376381
    outer loop
      vertex -8.12335 5.46936 4.02455
      vertex -10 5.09607 4.02455
      vertex -10 5.84265 2.22215
    endloop
  endfacet
  facet normal 0.700214 0.139282 0.700215
    outer loop
      vertex -6.15911 11.5909 7.77785
      vertex -7.4336 11.063 9.15735
      vertex -7.22215 10 9.15735
    endloop
  endfacet
  facet normal -0.216147 -0.323488 -0.921214
    outer loop
      vertex -11.063 7.4336 0.842651
      vertex -11.9642 8.03576 0.842651
      vertex -10.3733 9.0988 0.0960732
    endloop
  endfacet
  facet normal 0.700214 -0.139281 0.700214
    outer loop
      vertex -5.84265 10 7.77785
      vertex -7.22215 10 9.15735
      vertex -6.15911 8.40905 7.77785
    endloop
  endfacet
  facet normal -0.908663 0.180744 -0.376381
    outer loop
      vertex -14.1573 10 2.22215
      vertex -14.9039 10 4.02455
      vertex -14.5306 11.8767 4.02455
    endloop
  endfacet
  facet normal 0.139281 0.700214 0.700215
    outer loop
      vertex -8.40905 13.8409 7.77785
      vertex -10 12.7779 9.15735
      vertex -8.93696 12.5664 9.15735
    endloop
  endfacet
  facet normal -0.514717 -0.770328 0.37638
    outer loop
      vertex -12.9397 7.06031 7.77785
      vertex -13.4676 6.5324 5.97545
      vertex -11.8767 5.46936 5.97545
    endloop
  endfacet
  facet normal 0.770328 -0.514716 0.376381
    outer loop
      vertex -6.15911 8.40905 7.77785
      vertex -7.06031 7.06031 7.77785
      vertex -5.46936 8.12335 5.97545
    endloop
  endfacet
  facet normal -0.139282 0.700214 -0.700215
    outer loop
      vertex -11.063 12.5664 0.842651
      vertex -11.5909 13.8409 2.22215
      vertex -10 12.7779 0.842651
    endloop
  endfacet
  facet normal 0.216148 0.323487 0.921215
    outer loop
      vertex -8.03576 11.9642 9.15735
      vertex -9.62671 10.9012 9.90393
      vertex -9.31025 10.6897 9.90393
    endloop
  endfacet
  facet normal 0.770328 -0.514716 -0.376381
    outer loop
      vertex -5.46936 8.12335 4.02455
      vertex -7.06031 7.06031 2.22215
      vertex -6.15911 8.40905 2.22215
    endloop
  endfacet
  facet normal 0.700214 0.139281 0.700214
    outer loop
      vertex -6.15911 11.5909 7.77785
      vertex -7.22215 10 9.15735
      vertex -5.84265 10 7.77785
    endloop
  endfacet
  facet normal 0.0759009 -0.381579 0.921215
    outer loop
      vertex -10 9.02455 9.90393
      vertex -10 7.22215 9.15735
      vertex -8.93696 7.4336 9.15735
    endloop
  endfacet
  facet normal 0.908663 -0.180744 -0.376381
    outer loop
      vertex -5.46936 8.12335 4.02455
      vertex -6.15911 8.40905 2.22215
      vertex -5.84265 10 2.22215
    endloop
  endfacet
  facet normal -0.700214 -0.139281 -0.700214
    outer loop
      vertex -13.8409 8.40905 2.22215
      vertex -14.1573 10 2.22215
      vertex -12.7779 10 0.842651
    endloop
  endfacet
  facet normal -0.700214 0.139281 -0.700214
    outer loop
      vertex -12.7779 10 0.842651
      vertex -14.1573 10 2.22215
      vertex -13.8409 11.5909 2.22215
    endloop
  endfacet
  facet normal -0.381579 0.075901 0.921214
    outer loop
      vertex -12.5664 11.063 9.15735
      vertex -12.7779 10 9.15735
      vertex -10.9755 10 9.90393
    endloop
  endfacet
  facet normal -0.180745 0.908663 -0.376381
    outer loop
      vertex -11.5909 13.8409 2.22215
      vertex -11.8767 14.5306 4.02455
      vertex -10 14.1573 2.22215
    endloop
  endfacet
  facet normal 0.593613 0.396639 0.700215
    outer loop
      vertex -6.15911 11.5909 7.77785
      vertex -8.03576 11.9642 9.15735
      vertex -7.4336 11.063 9.15735
    endloop
  endfacet
  facet normal -0.908663 0.180745 0.376381
    outer loop
      vertex -13.8409 11.5909 7.77785
      vertex -14.5306 11.8767 5.97545
      vertex -14.1573 10 7.77785
    endloop
  endfacet
  facet normal 0.770328 0.514717 0.37638
    outer loop
      vertex -6.5324 13.4676 5.97545
      vertex -7.06031 12.9397 7.77785
      vertex -5.46936 11.8767 5.97545
    endloop
  endfacet
  facet normal 0.514717 0.770328 0.37638
    outer loop
      vertex -6.5324 13.4676 5.97545
      vertex -8.12335 14.5306 5.97545
      vertex -7.06031 12.9397 7.77785
    endloop
  endfacet
  facet normal 0.180744 0.908663 0.376381
    outer loop
      vertex -8.12335 14.5306 5.97545
      vertex -10 14.1573 7.77785
      vertex -8.40905 13.8409 7.77785
    endloop
  endfacet
  facet normal -0.139282 0.700214 0.700215
    outer loop
      vertex -10 12.7779 9.15735
      vertex -11.5909 13.8409 7.77785
      vertex -11.063 12.5664 9.15735
    endloop
  endfacet
  facet normal -0.770328 -0.514717 0.37638
    outer loop
      vertex -12.9397 7.06031 7.77785
      vertex -14.5306 8.12335 5.97545
      vertex -13.4676 6.5324 5.97545
    endloop
  endfacet
  facet normal 0.180744 -0.908663 0.376381
    outer loop
      vertex -10 5.84265 7.77785
      vertex -10 5.09607 5.97545
      vertex -8.12335 5.46936 5.97545
    endloop
  endfacet
  facet normal 0.216148 -0.323487 0.921215
    outer loop
      vertex -9.31025 9.31025 9.90393
      vertex -9.62671 9.0988 9.90393
      vertex -8.03576 8.03576 9.15735
    endloop
  endfacet
  facet normal -0.55557 -0.83147 0
    outer loop
      vertex -13.4676 6.5324 4.02455
      vertex -11.8767 5.46936 5.97545
      vertex -13.4676 6.5324 5.97545
    endloop
  endfacet
  facet normal -0.55557 -0.83147 -0
    outer loop
      vertex -11.8767 5.46936 5.97545
      vertex -13.4676 6.5324 4.02455
      vertex -11.8767 5.46936 4.02455
    endloop
  endfacet
  facet normal -0.139281 -0.700214 -0.700214
    outer loop
      vertex -10 5.84265 2.22215
      vertex -11.5909 6.15911 2.22215
      vertex -10 7.22215 0.842651
    endloop
  endfacet
  facet normal 0.39664 -0.593613 -0.700215
    outer loop
      vertex -7.06031 7.06031 2.22215
      vertex -8.40905 6.15911 2.22215
      vertex -8.03576 8.03576 0.842651
    endloop
  endfacet
  facet normal 0.980785 -0.19509 0
    outer loop
      vertex -5.46936 8.12335 5.97545
      vertex -5.09607 10 4.02455
      vertex -5.09607 10 5.97545
    endloop
  endfacet
  facet normal 0.980785 -0.19509 0
    outer loop
      vertex -5.09607 10 4.02455
      vertex -5.46936 8.12335 5.97545
      vertex -5.46936 8.12335 4.02455
    endloop
  endfacet
  facet normal 0.55557 -0.83147 0
    outer loop
      vertex -8.12335 5.46936 4.02455
      vertex -6.5324 6.5324 5.97545
      vertex -8.12335 5.46936 5.97545
    endloop
  endfacet
  facet normal 0.55557 -0.83147 0
    outer loop
      vertex -6.5324 6.5324 5.97545
      vertex -8.12335 5.46936 4.02455
      vertex -6.5324 6.5324 4.02455
    endloop
  endfacet
  facet normal 0.514717 -0.770328 -0.37638
    outer loop
      vertex -6.5324 6.5324 4.02455
      vertex -8.12335 5.46936 4.02455
      vertex -7.06031 7.06031 2.22215
    endloop
  endfacet
  facet normal -0.700214 -0.139281 -0.700215
    outer loop
      vertex -12.5664 8.93696 0.842651
      vertex -13.8409 8.40905 2.22215
      vertex -12.7779 10 0.842651
    endloop
  endfacet
  facet normal -0.83147 0.55557 0
    outer loop
      vertex -14.5306 11.8767 4.02455
      vertex -13.4676 13.4676 5.97545
      vertex -13.4676 13.4676 4.02455
    endloop
  endfacet
  facet normal -0.83147 0.55557 0
    outer loop
      vertex -13.4676 13.4676 5.97545
      vertex -14.5306 11.8767 4.02455
      vertex -14.5306 11.8767 5.97545
    endloop
  endfacet
  facet normal -0.55557 0.83147 0
    outer loop
      vertex -11.8767 14.5306 4.02455
      vertex -13.4676 13.4676 5.97545
      vertex -11.8767 14.5306 5.97545
    endloop
  endfacet
  facet normal -0.55557 0.83147 0
    outer loop
      vertex -13.4676 13.4676 5.97545
      vertex -11.8767 14.5306 4.02455
      vertex -13.4676 13.4676 4.02455
    endloop
  endfacet
  facet normal -0.980785 0.19509 0
    outer loop
      vertex -14.9039 10 4.02455
      vertex -14.5306 11.8767 5.97545
      vertex -14.5306 11.8767 4.02455
    endloop
  endfacet
  facet normal -0.980785 0.19509 0
    outer loop
      vertex -14.5306 11.8767 5.97545
      vertex -14.9039 10 4.02455
      vertex -14.9039 10 5.97545
    endloop
  endfacet
  facet normal -0.180744 -0.908663 -0.376381
    outer loop
      vertex -10 5.09607 4.02455
      vertex -11.8767 5.46936 4.02455
      vertex -10 5.84265 2.22215
    endloop
  endfacet
  facet normal 0.55557 0.83147 -0
    outer loop
      vertex -6.5324 13.4676 4.02455
      vertex -8.12335 14.5306 5.97545
      vertex -6.5324 13.4676 5.97545
    endloop
  endfacet
  facet normal 0.55557 0.83147 0
    outer loop
      vertex -8.12335 14.5306 5.97545
      vertex -6.5324 13.4676 4.02455
      vertex -8.12335 14.5306 4.02455
    endloop
  endfacet
  facet normal -0.908663 0.180744 0.376381
    outer loop
      vertex -14.5306 11.8767 5.97545
      vertex -14.9039 10 5.97545
      vertex -14.1573 10 7.77785
    endloop
  endfacet
  facet normal 0.216147 0.323488 0.921214
    outer loop
      vertex -8.93696 12.5664 9.15735
      vertex -9.62671 10.9012 9.90393
      vertex -8.03576 11.9642 9.15735
    endloop
  endfacet
  facet normal 0.323487 0.216148 0.921215
    outer loop
      vertex -8.03576 11.9642 9.15735
      vertex -9.31025 10.6897 9.90393
      vertex -9.0988 10.3733 9.90393
    endloop
  endfacet
  facet normal -0.700214 0.139281 0.700214
    outer loop
      vertex -13.8409 11.5909 7.77785
      vertex -14.1573 10 7.77785
      vertex -12.7779 10 9.15735
    endloop
  endfacet
  facet normal 0.139281 0.700214 0.700214
    outer loop
      vertex -10 14.1573 7.77785
      vertex -10 12.7779 9.15735
      vertex -8.40905 13.8409 7.77785
    endloop
  endfacet
  facet normal 0.908663 -0.180744 -0.376381
    outer loop
      vertex -5.46936 8.12335 4.02455
      vertex -5.84265 10 2.22215
      vertex -5.09607 10 4.02455
    endloop
  endfacet
  facet normal 0.180744 0.908663 -0.376381
    outer loop
      vertex -8.40905 13.8409 2.22215
      vertex -10 14.1573 2.22215
      vertex -8.12335 14.5306 4.02455
    endloop
  endfacet
  facet normal 0.514717 0.770328 -0.37638
    outer loop
      vertex -7.06031 12.9397 2.22215
      vertex -8.12335 14.5306 4.02455
      vertex -6.5324 13.4676 4.02455
    endloop
  endfacet
  facet normal -0.514716 0.770328 -0.376381
    outer loop
      vertex -11.5909 13.8409 2.22215
      vertex -12.9397 12.9397 2.22215
      vertex -11.8767 14.5306 4.02455
    endloop
  endfacet
  facet normal -0.770328 0.514716 -0.376381
    outer loop
      vertex -13.8409 11.5909 2.22215
      vertex -14.5306 11.8767 4.02455
      vertex -12.9397 12.9397 2.22215
    endloop
  endfacet
  facet normal 0.514716 0.770328 -0.376381
    outer loop
      vertex -7.06031 12.9397 2.22215
      vertex -8.40905 13.8409 2.22215
      vertex -8.12335 14.5306 4.02455
    endloop
  endfacet
  facet normal -0.180744 0.908663 -0.376381
    outer loop
      vertex -10 14.1573 2.22215
      vertex -11.8767 14.5306 4.02455
      vertex -10 14.9039 4.02455
    endloop
  endfacet
  facet normal 0.700214 -0.139281 0.700215
    outer loop
      vertex -7.22215 10 9.15735
      vertex -7.4336 8.93696 9.15735
      vertex -6.15911 8.40905 7.77785
    endloop
  endfacet
  facet normal 0.381579 -0.0759009 0.921215
    outer loop
      vertex -7.22215 10 9.15735
      vertex -9.02455 10 9.90393
      vertex -7.4336 8.93696 9.15735
    endloop
  endfacet
  facet normal -0.075901 -0.381579 0.921214
    outer loop
      vertex -10 9.02455 9.90393
      vertex -11.063 7.4336 9.15735
      vertex -10 7.22215 9.15735
    endloop
  endfacet
  facet normal 0.514717 -0.770328 0.37638
    outer loop
      vertex -7.06031 7.06031 7.77785
      vertex -8.12335 5.46936 5.97545
      vertex -6.5324 6.5324 5.97545
    endloop
  endfacet
  facet normal -0.514716 -0.770328 0.376381
    outer loop
      vertex -11.5909 6.15911 7.77785
      vertex -12.9397 7.06031 7.77785
      vertex -11.8767 5.46936 5.97545
    endloop
  endfacet
  facet normal 0.908663 -0.180744 0.376381
    outer loop
      vertex -5.09607 10 5.97545
      vertex -5.84265 10 7.77785
      vertex -5.46936 8.12335 5.97545
    endloop
  endfacet
  facet normal 0.908663 0.180744 0.376381
    outer loop
      vertex -5.46936 11.8767 5.97545
      vertex -5.84265 10 7.77785
      vertex -5.09607 10 5.97545
    endloop
  endfacet
  facet normal 0.323488 -0.216147 -0.921214
    outer loop
      vertex -8.03576 8.03576 0.842651
      vertex -9.0988 9.62671 0.0960732
      vertex -7.4336 8.93696 0.842651
    endloop
  endfacet
  facet normal 0.700214 -0.139281 -0.700214
    outer loop
      vertex -6.15911 8.40905 2.22215
      vertex -7.22215 10 0.842651
      vertex -5.84265 10 2.22215
    endloop
  endfacet
  facet normal 0.216148 -0.323487 -0.921215
    outer loop
      vertex -8.03576 8.03576 0.842651
      vertex -9.62671 9.0988 0.0960732
      vertex -9.31025 9.31025 0.0960732
    endloop
  endfacet
  facet normal 0.323487 -0.216148 -0.921215
    outer loop
      vertex -8.03576 8.03576 0.842651
      vertex -9.31025 9.31025 0.0960732
      vertex -9.0988 9.62671 0.0960732
    endloop
  endfacet
  facet normal 0.980785 0.19509 0
    outer loop
      vertex -5.09607 10 5.97545
      vertex -5.46936 11.8767 4.02455
      vertex -5.46936 11.8767 5.97545
    endloop
  endfacet
  facet normal 0.980785 0.19509 0
    outer loop
      vertex -5.46936 11.8767 4.02455
      vertex -5.09607 10 5.97545
      vertex -5.09607 10 4.02455
    endloop
  endfacet
  facet normal 0.700214 0.139281 -0.700214
    outer loop
      vertex -5.84265 10 2.22215
      vertex -7.22215 10 0.842651
      vertex -6.15911 11.5909 2.22215
    endloop
  endfacet
  facet normal -0.19509 -0.980785 0
    outer loop
      vertex -11.8767 5.46936 4.02455
      vertex -10 5.09607 5.97545
      vertex -11.8767 5.46936 5.97545
    endloop
  endfacet
  facet normal -0.19509 -0.980785 -0
    outer loop
      vertex -10 5.09607 5.97545
      vertex -11.8767 5.46936 4.02455
      vertex -10 5.09607 4.02455
    endloop
  endfacet
  facet normal 0.514716 -0.770328 -0.376381
    outer loop
      vertex -8.12335 5.46936 4.02455
      vertex -8.40905 6.15911 2.22215
      vertex -7.06031 7.06031 2.22215
    endloop
  endfacet
  facet normal 0.180744 -0.908663 -0.376381
    outer loop
      vertex -8.12335 5.46936 4.02455
      vertex -10 5.84265 2.22215
      vertex -8.40905 6.15911 2.22215
    endloop
  endfacet
  facet normal 0.770328 -0.514717 -0.37638
    outer loop
      vertex -6.5324 6.5324 4.02455
      vertex -7.06031 7.06031 2.22215
      vertex -5.46936 8.12335 4.02455
    endloop
  endfacet
  facet normal 0.83147 -0.55557 0
    outer loop
      vertex -6.5324 6.5324 5.97545
      vertex -5.46936 8.12335 4.02455
      vertex -5.46936 8.12335 5.97545
    endloop
  endfacet
  facet normal 0.83147 -0.55557 0
    outer loop
      vertex -5.46936 8.12335 4.02455
      vertex -6.5324 6.5324 5.97545
      vertex -6.5324 6.5324 4.02455
    endloop
  endfacet
  facet normal -0.323488 0.216147 -0.921214
    outer loop
      vertex -10.9012 10.3733 0.0960732
      vertex -12.5664 11.063 0.842651
      vertex -11.9642 11.9642 0.842651
    endloop
  endfacet
  facet normal -0.39664 0.593613 -0.700215
    outer loop
      vertex -11.9642 11.9642 0.842651
      vertex -12.9397 12.9397 2.22215
      vertex -11.5909 13.8409 2.22215
    endloop
  endfacet
  facet normal -0.381579 0.075901 -0.921214
    outer loop
      vertex -10.9755 10 0.0960732
      vertex -12.7779 10 0.842651
      vertex -12.5664 11.063 0.842651
    endloop
  endfacet
  facet normal -0.980785 -0.19509 0
    outer loop
      vertex -14.5306 8.12335 4.02455
      vertex -14.9039 10 5.97545
      vertex -14.9039 10 4.02455
    endloop
  endfacet
  facet normal -0.980785 -0.19509 0
    outer loop
      vertex -14.9039 10 5.97545
      vertex -14.5306 8.12335 4.02455
      vertex -14.5306 8.12335 5.97545
    endloop
  endfacet
  facet normal -0.700214 -0.139281 0.700214
    outer loop
      vertex -12.7779 10 9.15735
      vertex -14.1573 10 7.77785
      vertex -13.8409 8.40905 7.77785
    endloop
  endfacet
  facet normal -0.700214 -0.139281 0.700215
    outer loop
      vertex -12.7779 10 9.15735
      vertex -13.8409 8.40905 7.77785
      vertex -12.5664 8.93696 9.15735
    endloop
  endfacet
  facet normal 0.323488 0.216147 0.921214
    outer loop
      vertex -8.03576 11.9642 9.15735
      vertex -9.0988 10.3733 9.90393
      vertex -7.4336 11.063 9.15735
    endloop
  endfacet
  facet normal 0.381579 0.0759012 0.921215
    outer loop
      vertex -7.4336 11.063 9.15735
      vertex -9.0988 10.3733 9.90393
      vertex -9.02455 10 9.90393
    endloop
  endfacet
  facet normal 0.593613 0.39664 0.700215
    outer loop
      vertex -7.06031 12.9397 7.77785
      vertex -8.03576 11.9642 9.15735
      vertex -6.15911 11.5909 7.77785
    endloop
  endfacet
  facet normal 0.770328 0.514716 0.376381
    outer loop
      vertex -5.46936 11.8767 5.97545
      vertex -7.06031 12.9397 7.77785
      vertex -6.15911 11.5909 7.77785
    endloop
  endfacet
  facet normal -0.381579 -0.0759009 0.921215
    outer loop
      vertex -10.9755 10 9.90393
      vertex -12.7779 10 9.15735
      vertex -12.5664 8.93696 9.15735
    endloop
  endfacet
  facet normal -0.514716 0.770328 0.376381
    outer loop
      vertex -11.8767 14.5306 5.97545
      vertex -12.9397 12.9397 7.77785
      vertex -11.5909 13.8409 7.77785
    endloop
  endfacet
  facet normal -0.770328 0.514716 0.376381
    outer loop
      vertex -12.9397 12.9397 7.77785
      vertex -14.5306 11.8767 5.97545
      vertex -13.8409 11.5909 7.77785
    endloop
  endfacet
  facet normal -0.180745 0.908663 0.376381
    outer loop
      vertex -10 14.1573 7.77785
      vertex -11.8767 14.5306 5.97545
      vertex -11.5909 13.8409 7.77785
    endloop
  endfacet
  facet normal -0.593613 0.39664 0.700215
    outer loop
      vertex -12.9397 12.9397 7.77785
      vertex -13.8409 11.5909 7.77785
      vertex -11.9642 11.9642 9.15735
    endloop
  endfacet
  facet normal -0.39664 0.593613 0.700215
    outer loop
      vertex -11.5909 13.8409 7.77785
      vertex -12.9397 12.9397 7.77785
      vertex -11.9642 11.9642 9.15735
    endloop
  endfacet
  facet normal 0.216148 0.323487 -0.921215
    outer loop
      vertex -9.31025 10.6897 0.0960732
      vertex -9.62671 10.9012 0.0960732
      vertex -8.03576 11.9642 0.842651
    endloop
  endfacet
  facet normal -0.075901 0.381579 -0.921214
    outer loop
      vertex -10 10.9755 0.0960732
      vertex -11.063 12.5664 0.842651
      vertex -10 12.7779 0.842651
    endloop
  endfacet
  facet normal 0.180744 0.908663 -0.376381
    outer loop
      vertex -8.12335 14.5306 4.02455
      vertex -10 14.1573 2.22215
      vertex -10 14.9039 4.02455
    endloop
  endfacet
  facet normal 0.19509 0.980785 -0
    outer loop
      vertex -8.12335 14.5306 4.02455
      vertex -10 14.9039 5.97545
      vertex -8.12335 14.5306 5.97545
    endloop
  endfacet
  facet normal 0.19509 0.980785 0
    outer loop
      vertex -10 14.9039 5.97545
      vertex -8.12335 14.5306 4.02455
      vertex -10 14.9039 4.02455
    endloop
  endfacet
  facet normal -0.216148 -0.323487 0.921215
    outer loop
      vertex -10.6897 9.31025 9.90393
      vertex -11.9642 8.03576 9.15735
      vertex -10.3733 9.0988 9.90393
    endloop
  endfacet
  facet normal -0.180744 -0.908663 0.376381
    outer loop
      vertex -10 5.84265 7.77785
      vertex -11.8767 5.46936 5.97545
      vertex -10 5.09607 5.97545
    endloop
  endfacet
  facet normal -0.381579 -0.075901 -0.921215
    outer loop
      vertex -10.9012 9.62671 0.0960732
      vertex -12.5664 8.93696 0.842651
      vertex -10.9755 10 0.0960732
    endloop
  endfacet
  facet normal -0.83147 -0.55557 0
    outer loop
      vertex -13.4676 6.5324 4.02455
      vertex -14.5306 8.12335 5.97545
      vertex -14.5306 8.12335 4.02455
    endloop
  endfacet
  facet normal -0.83147 -0.55557 0
    outer loop
      vertex -14.5306 8.12335 5.97545
      vertex -13.4676 6.5324 4.02455
      vertex -13.4676 6.5324 5.97545
    endloop
  endfacet
  facet normal -0.39664 -0.593613 -0.700215
    outer loop
      vertex -11.5909 6.15911 2.22215
      vertex -12.9397 7.06031 2.22215
      vertex -11.9642 8.03576 0.842651
    endloop
  endfacet
  facet normal 0.0759009 -0.381579 -0.921215
    outer loop
      vertex -8.93696 7.4336 0.842651
      vertex -10 7.22215 0.842651
      vertex -10 9.02455 0.0960732
    endloop
  endfacet
  facet normal -0.0759012 -0.381579 0.921215
    outer loop
      vertex -10.3733 9.0988 9.90393
      vertex -11.063 7.4336 9.15735
      vertex -10 9.02455 9.90393
    endloop
  endfacet
  facet normal -0.593613 -0.396639 0.700215
    outer loop
      vertex -12.5664 8.93696 9.15735
      vertex -13.8409 8.40905 7.77785
      vertex -11.9642 8.03576 9.15735
    endloop
  endfacet
  facet normal 0.323488 -0.216147 0.921214
    outer loop
      vertex -7.4336 8.93696 9.15735
      vertex -9.0988 9.62671 9.90393
      vertex -8.03576 8.03576 9.15735
    endloop
  endfacet
  facet normal -0.180745 -0.908663 0.376381
    outer loop
      vertex -11.5909 6.15911 7.77785
      vertex -11.8767 5.46936 5.97545
      vertex -10 5.84265 7.77785
    endloop
  endfacet
  facet normal -0.216147 -0.323488 0.921214
    outer loop
      vertex -10.3733 9.0988 9.90393
      vertex -11.9642 8.03576 9.15735
      vertex -11.063 7.4336 9.15735
    endloop
  endfacet
  facet normal -0.139282 -0.700214 0.700215
    outer loop
      vertex -11.063 7.4336 9.15735
      vertex -11.5909 6.15911 7.77785
      vertex -10 7.22215 9.15735
    endloop
  endfacet
  facet normal 0.139281 -0.700214 -0.700215
    outer loop
      vertex -8.40905 6.15911 2.22215
      vertex -10 7.22215 0.842651
      vertex -8.93696 7.4336 0.842651
    endloop
  endfacet
  facet normal 0.139281 -0.700214 -0.700214
    outer loop
      vertex -8.40905 6.15911 2.22215
      vertex -10 5.84265 2.22215
      vertex -10 7.22215 0.842651
    endloop
  endfacet
  facet normal 0.19509 -0.980785 0
    outer loop
      vertex -10 5.09607 4.02455
      vertex -8.12335 5.46936 5.97545
      vertex -10 5.09607 5.97545
    endloop
  endfacet
  facet normal 0.19509 -0.980785 0
    outer loop
      vertex -8.12335 5.46936 5.97545
      vertex -10 5.09607 4.02455
      vertex -8.12335 5.46936 4.02455
    endloop
  endfacet
  facet normal 0.514716 -0.770328 0.376381
    outer loop
      vertex -7.06031 7.06031 7.77785
      vertex -8.40905 6.15911 7.77785
      vertex -8.12335 5.46936 5.97545
    endloop
  endfacet
  facet normal 0.396639 -0.593613 -0.700215
    outer loop
      vertex -8.40905 6.15911 2.22215
      vertex -8.93696 7.4336 0.842651
      vertex -8.03576 8.03576 0.842651
    endloop
  endfacet
  facet normal 0.593613 -0.396639 -0.700215
    outer loop
      vertex -6.15911 8.40905 2.22215
      vertex -8.03576 8.03576 0.842651
      vertex -7.4336 8.93696 0.842651
    endloop
  endfacet
  facet normal 0.593613 -0.39664 -0.700215
    outer loop
      vertex -7.06031 7.06031 2.22215
      vertex -8.03576 8.03576 0.842651
      vertex -6.15911 8.40905 2.22215
    endloop
  endfacet
  facet normal 0.216147 -0.323488 -0.921214
    outer loop
      vertex -8.93696 7.4336 0.842651
      vertex -9.62671 9.0988 0.0960732
      vertex -8.03576 8.03576 0.842651
    endloop
  endfacet
  facet normal 0.075901 -0.381579 -0.921215
    outer loop
      vertex -8.93696 7.4336 0.842651
      vertex -10 9.02455 0.0960732
      vertex -9.62671 9.0988 0.0960732
    endloop
  endfacet
  facet normal -0.075901 -0.381579 -0.921214
    outer loop
      vertex -10 7.22215 0.842651
      vertex -11.063 7.4336 0.842651
      vertex -10 9.02455 0.0960732
    endloop
  endfacet
  facet normal -0.381579 -0.0759009 -0.921215
    outer loop
      vertex -12.5664 8.93696 0.842651
      vertex -12.7779 10 0.842651
      vertex -10.9755 10 0.0960732
    endloop
  endfacet
  facet normal -0.593613 -0.39664 -0.700215
    outer loop
      vertex -12.9397 7.06031 2.22215
      vertex -13.8409 8.40905 2.22215
      vertex -11.9642 8.03576 0.842651
    endloop
  endfacet
  facet normal -0.396639 0.593613 -0.700215
    outer loop
      vertex -11.063 12.5664 0.842651
      vertex -11.9642 11.9642 0.842651
      vertex -11.5909 13.8409 2.22215
    endloop
  endfacet
  facet normal 0.39664 0.593613 -0.700215
    outer loop
      vertex -8.03576 11.9642 0.842651
      vertex -8.40905 13.8409 2.22215
      vertex -7.06031 12.9397 2.22215
    endloop
  endfacet
  facet normal -0.593613 0.39664 -0.700215
    outer loop
      vertex -11.9642 11.9642 0.842651
      vertex -13.8409 11.5909 2.22215
      vertex -12.9397 12.9397 2.22215
    endloop
  endfacet
  facet normal -0.908663 0.180745 -0.376381
    outer loop
      vertex -14.1573 10 2.22215
      vertex -14.5306 11.8767 4.02455
      vertex -13.8409 11.5909 2.22215
    endloop
  endfacet
  facet normal -0.770328 0.514717 -0.37638
    outer loop
      vertex -12.9397 12.9397 2.22215
      vertex -14.5306 11.8767 4.02455
      vertex -13.4676 13.4676 4.02455
    endloop
  endfacet
  facet normal -0.514717 0.770328 -0.37638
    outer loop
      vertex -12.9397 12.9397 2.22215
      vertex -13.4676 13.4676 4.02455
      vertex -11.8767 14.5306 4.02455
    endloop
  endfacet
  facet normal -0.381579 -0.075901 0.921215
    outer loop
      vertex -10.9755 10 9.90393
      vertex -12.5664 8.93696 9.15735
      vertex -10.9012 9.62671 9.90393
    endloop
  endfacet
  facet normal -0.381579 0.0759012 0.921215
    outer loop
      vertex -10.9012 10.3733 9.90393
      vertex -12.5664 11.063 9.15735
      vertex -10.9755 10 9.90393
    endloop
  endfacet
  facet normal -0.19509 0.980785 0
    outer loop
      vertex -10 14.9039 4.02455
      vertex -11.8767 14.5306 5.97545
      vertex -10 14.9039 5.97545
    endloop
  endfacet
  facet normal -0.19509 0.980785 0
    outer loop
      vertex -11.8767 14.5306 5.97545
      vertex -10 14.9039 4.02455
      vertex -11.8767 14.5306 4.02455
    endloop
  endfacet
  facet normal 0.39664 0.593613 0.700215
    outer loop
      vertex -7.06031 12.9397 7.77785
      vertex -8.40905 13.8409 7.77785
      vertex -8.03576 11.9642 9.15735
    endloop
  endfacet
  facet normal 0.514716 0.770328 0.376381
    outer loop
      vertex -8.12335 14.5306 5.97545
      vertex -8.40905 13.8409 7.77785
      vertex -7.06031 12.9397 7.77785
    endloop
  endfacet
  facet normal -0.396639 0.593613 0.700215
    outer loop
      vertex -11.5909 13.8409 7.77785
      vertex -11.9642 11.9642 9.15735
      vertex -11.063 12.5664 9.15735
    endloop
  endfacet
  facet normal 0.593613 0.39664 -0.700215
    outer loop
      vertex -6.15911 11.5909 2.22215
      vertex -8.03576 11.9642 0.842651
      vertex -7.06031 12.9397 2.22215
    endloop
  endfacet
  facet normal 0.593613 0.396639 -0.700215
    outer loop
      vertex -7.4336 11.063 0.842651
      vertex -8.03576 11.9642 0.842651
      vertex -6.15911 11.5909 2.22215
    endloop
  endfacet
  facet normal 0.139281 0.700214 -0.700215
    outer loop
      vertex -8.93696 12.5664 0.842651
      vertex -10 12.7779 0.842651
      vertex -8.40905 13.8409 2.22215
    endloop
  endfacet
  facet normal 0.139281 0.700214 -0.700214
    outer loop
      vertex -8.40905 13.8409 2.22215
      vertex -10 12.7779 0.842651
      vertex -10 14.1573 2.22215
    endloop
  endfacet
  facet normal 0.770328 0.514717 -0.37638
    outer loop
      vertex -5.46936 11.8767 4.02455
      vertex -7.06031 12.9397 2.22215
      vertex -6.5324 13.4676 4.02455
    endloop
  endfacet
  facet normal 0.83147 0.55557 0
    outer loop
      vertex -5.46936 11.8767 5.97545
      vertex -6.5324 13.4676 4.02455
      vertex -6.5324 13.4676 5.97545
    endloop
  endfacet
  facet normal 0.83147 0.55557 0
    outer loop
      vertex -6.5324 13.4676 4.02455
      vertex -5.46936 11.8767 5.97545
      vertex -5.46936 11.8767 4.02455
    endloop
  endfacet
  facet normal 0.323487 -0.216148 0.921215
    outer loop
      vertex -9.0988 9.62671 9.90393
      vertex -9.31025 9.31025 9.90393
      vertex -8.03576 8.03576 9.15735
    endloop
  endfacet
  facet normal 0.216147 -0.323488 0.921214
    outer loop
      vertex -8.03576 8.03576 9.15735
      vertex -9.62671 9.0988 9.90393
      vertex -8.93696 7.4336 9.15735
    endloop
  endfacet
  facet normal 0.396639 -0.593613 0.700215
    outer loop
      vertex -8.03576 8.03576 9.15735
      vertex -8.93696 7.4336 9.15735
      vertex -8.40905 6.15911 7.77785
    endloop
  endfacet
  facet normal 0.381579 -0.075901 0.921215
    outer loop
      vertex -9.02455 10 9.90393
      vertex -9.0988 9.62671 9.90393
      vertex -7.4336 8.93696 9.15735
    endloop
  endfacet
  facet normal -0.514716 -0.770328 -0.376381
    outer loop
      vertex -11.8767 5.46936 4.02455
      vertex -12.9397 7.06031 2.22215
      vertex -11.5909 6.15911 2.22215
    endloop
  endfacet
  facet normal -0.908663 -0.180744 -0.376381
    outer loop
      vertex -13.8409 8.40905 2.22215
      vertex -14.5306 8.12335 4.02455
      vertex -14.1573 10 2.22215
    endloop
  endfacet
  facet normal -0.514717 -0.770328 -0.37638
    outer loop
      vertex -11.8767 5.46936 4.02455
      vertex -13.4676 6.5324 4.02455
      vertex -12.9397 7.06031 2.22215
    endloop
  endfacet
  facet normal -0.180745 -0.908663 -0.376381
    outer loop
      vertex -10 5.84265 2.22215
      vertex -11.8767 5.46936 4.02455
      vertex -11.5909 6.15911 2.22215
    endloop
  endfacet
  facet normal 0.39664 -0.593613 0.700215
    outer loop
      vertex -8.03576 8.03576 9.15735
      vertex -8.40905 6.15911 7.77785
      vertex -7.06031 7.06031 7.77785
    endloop
  endfacet
  facet normal 0.593613 -0.39664 0.700215
    outer loop
      vertex -6.15911 8.40905 7.77785
      vertex -8.03576 8.03576 9.15735
      vertex -7.06031 7.06031 7.77785
    endloop
  endfacet
  facet normal -0.593613 -0.39664 0.700215
    outer loop
      vertex -11.9642 8.03576 9.15735
      vertex -13.8409 8.40905 7.77785
      vertex -12.9397 7.06031 7.77785
    endloop
  endfacet
  facet normal -0.770328 -0.514716 0.376381
    outer loop
      vertex -13.8409 8.40905 7.77785
      vertex -14.5306 8.12335 5.97545
      vertex -12.9397 7.06031 7.77785
    endloop
  endfacet
  facet normal -0.139282 -0.700214 -0.700215
    outer loop
      vertex -10 7.22215 0.842651
      vertex -11.5909 6.15911 2.22215
      vertex -11.063 7.4336 0.842651
    endloop
  endfacet
  facet normal -0.396639 -0.593613 -0.700215
    outer loop
      vertex -11.5909 6.15911 2.22215
      vertex -11.9642 8.03576 0.842651
      vertex -11.063 7.4336 0.842651
    endloop
  endfacet
  facet normal 0.180744 -0.908663 0.376381
    outer loop
      vertex -8.40905 6.15911 7.77785
      vertex -10 5.84265 7.77785
      vertex -8.12335 5.46936 5.97545
    endloop
  endfacet
  facet normal -0.139281 -0.700214 0.700214
    outer loop
      vertex -10 7.22215 9.15735
      vertex -11.5909 6.15911 7.77785
      vertex -10 5.84265 7.77785
    endloop
  endfacet
  facet normal 0 0 -1
    outer loop
      vertex -9.0988 9.62671 0.0960732
      vertex -9.0988 10.3733 0.0960732
      vertex -9.02455 10 0.0960732
    endloop
  endfacet
  facet normal 0 0 -1
    outer loop
      vertex -9.31025 9.31025 0.0960732
      vertex -9.0988 10.3733 0.0960732
      vertex -9.0988 9.62671 0.0960732
    endloop
  endfacet
  facet normal 0 0 -1
    outer loop
      vertex -9.31025 9.31025 0.0960732
      vertex -9.31025 10.6897 0.0960732
      vertex -9.0988 10.3733 0.0960732
    endloop
  endfacet
  facet normal 0 0 -1
    outer loop
      vertex -9.62671 9.0988 0.0960732
      vertex -9.31025 10.6897 0.0960732
      vertex -9.31025 9.31025 0.0960732
    endloop
  endfacet
  facet normal 0 0 -1
    outer loop
      vertex -9.62671 9.0988 0.0960732
      vertex -9.62671 10.9012 0.0960732
      vertex -9.31025 10.6897 0.0960732
    endloop
  endfacet
  facet normal 0 0 -1
    outer loop
      vertex -10 9.02455 0.0960732
      vertex -9.62671 10.9012 0.0960732
      vertex -9.62671 9.0988 0.0960732
    endloop
  endfacet
  facet normal 0 0 -1
    outer loop
      vertex -10 9.02455 0.0960732
      vertex -10 10.9755 0.0960732
      vertex -9.62671 10.9012 0.0960732
    endloop
  endfacet
  facet normal 0 0 -1
    outer loop
      vertex -10.3733 9.0988 0.0960732
      vertex -10 10.9755 0.0960732
      vertex -10 9.02455 0.0960732
    endloop
  endfacet
  facet normal 0 0 -1
    outer loop
      vertex -10.3733 9.0988 0.0960732
      vertex -10.3733 10.9012 0.0960732
      vertex -10 10.9755 0.0960732
    endloop
  endfacet
  facet normal 0 0 -1
    outer loop
      vertex -10.6897 9.31025 0.0960732
      vertex -10.3733 10.9012 0.0960732
      vertex -10.3733 9.0988 0.0960732
    endloop
  endfacet
  facet normal 0 0 -1
    outer loop
      vertex -10.6897 9.31025 0.0960732
      vertex -10.6897 10.6897 0.0960732
      vertex -10.3733 10.9012 0.0960732
    endloop
  endfacet
  facet normal 0 0 -1
    outer loop
      vertex -10.9012 9.62671 0.0960732
      vertex -10.6897 10.6897 0.0960732
      vertex -10.6897 9.31025 0.0960732
    endloop
  endfacet
  facet normal 0 0 -1
    outer loop
      vertex -10.9012 9.62671 0.0960732
      vertex -10.9012 10.3733 0.0960732
      vertex -10.6897 10.6897 0.0960732
    endloop
  endfacet
  facet normal 0 -0 -1
    outer loop
      vertex -10.9012 10.3733 0.0960732
      vertex -10.9012 9.62671 0.0960732
      vertex -10.9755 10 0.0960732
    endloop
  endfacet
  facet normal -0.323487 -0.216148 -0.921215
    outer loop
      vertex -10.6897 9.31025 0.0960732
      vertex -11.9642 8.03576 0.842651
      vertex -10.9012 9.62671 0.0960732
    endloop
  endfacet
  facet normal -0.700214 0.139282 -0.700215
    outer loop
      vertex -12.7779 10 0.842651
      vertex -13.8409 11.5909 2.22215
      vertex -12.5664 11.063 0.842651
    endloop
  endfacet
  facet normal -0.593613 0.396639 -0.700215
    outer loop
      vertex -12.5664 11.063 0.842651
      vertex -13.8409 11.5909 2.22215
      vertex -11.9642 11.9642 0.842651
    endloop
  endfacet
  facet normal -0.381579 0.0759012 -0.921215
    outer loop
      vertex -10.9755 10 0.0960732
      vertex -12.5664 11.063 0.842651
      vertex -10.9012 10.3733 0.0960732
    endloop
  endfacet
  facet normal 0.0759009 0.381579 -0.921215
    outer loop
      vertex -8.93696 12.5664 0.842651
      vertex -10 10.9755 0.0960732
      vertex -10 12.7779 0.842651
    endloop
  endfacet
  facet normal -0.216147 0.323488 -0.921214
    outer loop
      vertex -10.3733 10.9012 0.0960732
      vertex -11.9642 11.9642 0.842651
      vertex -11.063 12.5664 0.842651
    endloop
  endfacet
  facet normal 0.075901 0.381579 0.921215
    outer loop
      vertex -8.93696 12.5664 9.15735
      vertex -10 10.9755 9.90393
      vertex -9.62671 10.9012 9.90393
    endloop
  endfacet
  facet normal -0.075901 0.381579 0.921214
    outer loop
      vertex -10 12.7779 9.15735
      vertex -11.063 12.5664 9.15735
      vertex -10 10.9755 9.90393
    endloop
  endfacet
  facet normal 0.0759009 0.381579 0.921215
    outer loop
      vertex -10 12.7779 9.15735
      vertex -10 10.9755 9.90393
      vertex -8.93696 12.5664 9.15735
    endloop
  endfacet
  facet normal -0.180744 0.908663 0.376381
    outer loop
      vertex -10 14.9039 5.97545
      vertex -11.8767 14.5306 5.97545
      vertex -10 14.1573 7.77785
    endloop
  endfacet
  facet normal 0.180744 0.908663 0.376381
    outer loop
      vertex -10 14.9039 5.97545
      vertex -10 14.1573 7.77785
      vertex -8.12335 14.5306 5.97545
    endloop
  endfacet
  facet normal -0.514717 0.770328 0.37638
    outer loop
      vertex -11.8767 14.5306 5.97545
      vertex -13.4676 13.4676 5.97545
      vertex -12.9397 12.9397 7.77785
    endloop
  endfacet
  facet normal -0.770328 0.514717 0.37638
    outer loop
      vertex -13.4676 13.4676 5.97545
      vertex -14.5306 11.8767 5.97545
      vertex -12.9397 12.9397 7.77785
    endloop
  endfacet
  facet normal -0.593613 0.396639 0.700215
    outer loop
      vertex -11.9642 11.9642 9.15735
      vertex -13.8409 11.5909 7.77785
      vertex -12.5664 11.063 9.15735
    endloop
  endfacet
  facet normal -0.700214 0.139282 0.700215
    outer loop
      vertex -12.5664 11.063 9.15735
      vertex -13.8409 11.5909 7.77785
      vertex -12.7779 10 9.15735
    endloop
  endfacet
  facet normal -0.0759012 0.381579 0.921215
    outer loop
      vertex -10 10.9755 9.90393
      vertex -11.063 12.5664 9.15735
      vertex -10.3733 10.9012 9.90393
    endloop
  endfacet
  facet normal 0 0 1
    outer loop
      vertex -9.0988 10.3733 9.90393
      vertex -9.0988 9.62671 9.90393
      vertex -9.02455 10 9.90393
    endloop
  endfacet
  facet normal 0 0 1
    outer loop
      vertex -9.31025 10.6897 9.90393
      vertex -9.0988 9.62671 9.90393
      vertex -9.0988 10.3733 9.90393
    endloop
  endfacet
  facet normal 0 0 1
    outer loop
      vertex -9.31025 10.6897 9.90393
      vertex -9.31025 9.31025 9.90393
      vertex -9.0988 9.62671 9.90393
    endloop
  endfacet
  facet normal 0 0 1
    outer loop
      vertex -9.62671 10.9012 9.90393
      vertex -9.31025 9.31025 9.90393
      vertex -9.31025 10.6897 9.90393
    endloop
  endfacet
  facet normal 0 0 1
    outer loop
      vertex -9.62671 10.9012 9.90393
      vertex -9.62671 9.0988 9.90393
      vertex -9.31025 9.31025 9.90393
    endloop
  endfacet
  facet normal 0 0 1
    outer loop
      vertex -10 10.9755 9.90393
      vertex -9.62671 9.0988 9.90393
      vertex -9.62671 10.9012 9.90393
    endloop
  endfacet
  facet normal 0 0 1
    outer loop
      vertex -10 10.9755 9.90393
      vertex -10 9.02455 9.90393
      vertex -9.62671 9.0988 9.90393
    endloop
  endfacet
  facet normal -0 0 1
    outer loop
      vertex -10.3733 10.9012 9.90393
      vertex -10 9.02455 9.90393
      vertex -10 10.9755 9.90393
    endloop
  endfacet
  facet normal 0 0 1
    outer loop
      vertex -10.3733 10.9012 9.90393
      vertex -10.3733 9.0988 9.90393
      vertex -10 9.02455 9.90393
    endloop
  endfacet
  facet normal -0 0 1
    outer loop
      vertex -10.6897 10.6897 9.90393
      vertex -10.3733 9.0988 9.90393
      vertex -10.3733 10.9012 9.90393
    endloop
  endfacet
  facet normal 0 0 1
    outer loop
      vertex -10.6897 10.6897 9.90393
      vertex -10.6897 9.31025 9.90393
      vertex -10.3733 9.0988 9.90393
    endloop
  endfacet
  facet normal -0 0 1
    outer loop
      vertex -10.9012 10.3733 9.90393
      vertex -10.6897 9.31025 9.90393
      vertex -10.6897 10.6897 9.90393
    endloop
  endfacet
  facet normal 0 0 1
    outer loop
      vertex -10.9012 10.3733 9.90393
      vertex -10.9012 9.62671 9.90393
      vertex -10.6897 9.31025 9.90393
    endloop
  endfacet
  facet normal 0 -0 1
    outer loop
      vertex -10.9012 9.62671 9.90393
      vertex -10.9012 10.3733 9.90393
      vertex -10.9755 10 9.90393
    endloop
  endfacet
  facet normal 0.075901 0.381579 -0.921215
    outer loop
      vertex -9.62671 10.9012 0.0960732
      vertex -10 10.9755 0.0960732
      vertex -8.93696 12.5664 0.842651
    endloop
  endfacet
  facet normal 0.381579 0.075901 -0.921214
    outer loop
      vertex -7.22215 10 0.842651
      vertex -9.02455 10 0.0960732
      vertex -7.4336 11.063 0.842651
    endloop
  endfacet
  facet normal 0.700214 0.139282 -0.700215
    outer loop
      vertex -7.22215 10 0.842651
      vertex -7.4336 11.063 0.842651
      vertex -6.15911 11.5909 2.22215
    endloop
  endfacet
  facet normal 0.770328 0.514716 -0.376381
    outer loop
      vertex -6.15911 11.5909 2.22215
      vertex -7.06031 12.9397 2.22215
      vertex -5.46936 11.8767 4.02455
    endloop
  endfacet
  facet normal 0.908663 0.180745 -0.376381
    outer loop
      vertex -5.84265 10 2.22215
      vertex -6.15911 11.5909 2.22215
      vertex -5.46936 11.8767 4.02455
    endloop
  endfacet
  facet normal 0.139281 -0.700214 0.700214
    outer loop
      vertex -10 7.22215 9.15735
      vertex -10 5.84265 7.77785
      vertex -8.40905 6.15911 7.77785
    endloop
  endfacet
  facet normal 0.139281 -0.700214 0.700215
    outer loop
      vertex -8.93696 7.4336 9.15735
      vertex -10 7.22215 9.15735
      vertex -8.40905 6.15911 7.77785
    endloop
  endfacet
  facet normal 0.075901 -0.381579 0.921215
    outer loop
      vertex -9.62671 9.0988 9.90393
      vertex -10 9.02455 9.90393
      vertex -8.93696 7.4336 9.15735
    endloop
  endfacet
  facet normal -0.770328 -0.514717 -0.37638
    outer loop
      vertex -13.4676 6.5324 4.02455
      vertex -14.5306 8.12335 4.02455
      vertex -12.9397 7.06031 2.22215
    endloop
  endfacet
  facet normal -0.770328 -0.514716 -0.376381
    outer loop
      vertex -12.9397 7.06031 2.22215
      vertex -14.5306 8.12335 4.02455
      vertex -13.8409 8.40905 2.22215
    endloop
  endfacet
  facet normal -0.323487 -0.216148 0.921215
    outer loop
      vertex -10.9012 9.62671 9.90393
      vertex -11.9642 8.03576 9.15735
      vertex -10.6897 9.31025 9.90393
    endloop
  endfacet
  facet normal -0.323488 -0.216147 0.921214
    outer loop
      vertex -10.9012 9.62671 9.90393
      vertex -12.5664 8.93696 9.15735
      vertex -11.9642 8.03576 9.15735
    endloop
  endfacet
  facet normal -0.0759012 -0.381579 -0.921215
    outer loop
      vertex -10 9.02455 0.0960732
      vertex -11.063 7.4336 0.842651
      vertex -10.3733 9.0988 0.0960732
    endloop
  endfacet
  facet normal -0.396639 -0.593613 0.700215
    outer loop
      vertex -11.063 7.4336 9.15735
      vertex -11.9642 8.03576 9.15735
      vertex -11.5909 6.15911 7.77785
    endloop
  endfacet
  facet normal -0.39664 -0.593613 0.700215
    outer loop
      vertex -11.9642 8.03576 9.15735
      vertex -12.9397 7.06031 7.77785
      vertex -11.5909 6.15911 7.77785
    endloop
  endfacet
  facet normal -0.323488 -0.216147 -0.921214
    outer loop
      vertex -11.9642 8.03576 0.842651
      vertex -12.5664 8.93696 0.842651
      vertex -10.9012 9.62671 0.0960732
    endloop
  endfacet
  facet normal -0.593613 -0.396639 -0.700215
    outer loop
      vertex -11.9642 8.03576 0.842651
      vertex -13.8409 8.40905 2.22215
      vertex -12.5664 8.93696 0.842651
    endloop
  endfacet
  facet normal -0.216148 0.323487 -0.921215
    outer loop
      vertex -10.6897 10.6897 0.0960732
      vertex -11.9642 11.9642 0.842651
      vertex -10.3733 10.9012 0.0960732
    endloop
  endfacet
  facet normal -0.323487 0.216148 0.921215
    outer loop
      vertex -10.6897 10.6897 9.90393
      vertex -11.9642 11.9642 9.15735
      vertex -10.9012 10.3733 9.90393
    endloop
  endfacet
  facet normal -0.323488 0.216147 0.921214
    outer loop
      vertex -11.9642 11.9642 9.15735
      vertex -12.5664 11.063 9.15735
      vertex -10.9012 10.3733 9.90393
    endloop
  endfacet
  facet normal -0.216147 0.323488 0.921214
    outer loop
      vertex -11.063 12.5664 9.15735
      vertex -11.9642 11.9642 9.15735
      vertex -10.3733 10.9012 9.90393
    endloop
  endfacet
  facet normal -0.216148 0.323487 0.921215
    outer loop
      vertex -10.3733 10.9012 9.90393
      vertex -11.9642 11.9642 9.15735
      vertex -10.6897 10.6897 9.90393
    endloop
  endfacet
  facet normal -0.0759012 0.381579 -0.921215
    outer loop
      vertex -10.3733 10.9012 0.0960732
      vertex -11.063 12.5664 0.842651
      vertex -10 10.9755 0.0960732
    endloop
  endfacet
  facet normal 0.396639 0.593613 -0.700215
    outer loop
      vertex -8.03576 11.9642 0.842651
      vertex -8.93696 12.5664 0.842651
      vertex -8.40905 13.8409 2.22215
    endloop
  endfacet
  facet normal 0.216147 0.323488 -0.921214
    outer loop
      vertex -8.03576 11.9642 0.842651
      vertex -9.62671 10.9012 0.0960732
      vertex -8.93696 12.5664 0.842651
    endloop
  endfacet
  facet normal 0.323488 0.216147 -0.921214
    outer loop
      vertex -7.4336 11.063 0.842651
      vertex -9.0988 10.3733 0.0960732
      vertex -8.03576 11.9642 0.842651
    endloop
  endfacet
  facet normal 0.381579 0.0759012 -0.921215
    outer loop
      vertex -9.02455 10 0.0960732
      vertex -9.0988 10.3733 0.0960732
      vertex -7.4336 11.063 0.842651
    endloop
  endfacet
  facet normal 0.700214 -0.139281 -0.700215
    outer loop
      vertex -6.15911 8.40905 2.22215
      vertex -7.4336 8.93696 0.842651
      vertex -7.22215 10 0.842651
    endloop
  endfacet
  facet normal 0.381579 -0.0759009 -0.921215
    outer loop
      vertex -7.4336 8.93696 0.842651
      vertex -9.02455 10 0.0960732
      vertex -7.22215 10 0.842651
    endloop
  endfacet
  facet normal 0.323487 0.216148 -0.921215
    outer loop
      vertex -9.0988 10.3733 0.0960732
      vertex -9.31025 10.6897 0.0960732
      vertex -8.03576 11.9642 0.842651
    endloop
  endfacet
  facet normal 0 0.942809 0.333333
    outer loop
      vertex -6.46447 -6.46447 0
      vertex -13.5355 -6.46447 0
      vertex -10 -10 10
    endloop
  endfacet
  facet normal -0.942809 0 0.333333
    outer loop
      vertex -13.5355 -6.46447 0
      vertex -13.5355 -13.5355 0
      vertex -10 -10 10
    endloop
  endfacet
  facet normal 0 -0.942809 0.333333
    outer loop
      vertex -10 -10 10
      vertex -13.5355 -13.5355 0
      vertex -6.46447 -13.5355 0
    endloop
  endfacet
  facet normal 0 0 -1
    outer loop
      vertex -13.5355 -13.5355 0
      vertex -6.46447 -6.46447 0
      vertex -6.46447 -13.5355 0
    endloop
  endfacet
  facet normal -0 0 -1
    outer loop
      vertex -6.46447 -6.46447 0
      vertex -13.5355 -13.5355 0
      vertex -13.5355 -6.46447 0
    endloop
  endfacet
  facet normal 0.942809 0 0.333333
    outer loop
      vertex -6.46447 -6.46447 0
      vertex -10 -10 10
      vertex -6.46447 -13.5355 0
    endloop
  endfacet
endsolid OpenSCAD_Model
